<svg xmlns="http://www.w3.org/2000/svg" width="138" height="144" viewBox="0 0 138 144" fill="none">
<path d="M77.2083 38.6832C73.6032 40.6785 71.852 42.7386 70.0237 47.0056C68.2867 51.1874 68.7763 52.3535 72.292 52.9182C74.4896 53.26 75.123 52.8402 76.6372 49.9764C77.9655 47.3713 78.7847 46.6928 80.2761 47.01C83.527 47.5655 82.8925 50.5484 77.9703 57.3589C73.24 63.7342 70.9723 70.4606 72.6762 72.2878C73.9541 73.6582 78.2376 72.482 78.3024 70.6282C78.3671 68.7744 82.0862 63.5128 86.2067 59.4142C92.3401 53.3531 93.6634 48.3614 90.6673 43.0421C87.4977 37.6283 82.1683 35.8513 77.2083 38.6832ZM87.4195 42.3984C89.2969 44.32 89.7803 45.6626 89.6848 48.3992C89.5738 51.5772 88.8213 52.8767 83.6744 58.5303C80.4552 62.1301 77.3879 66.4422 76.7145 68.0096C75.9374 70.0153 75.3861 70.6147 74.7046 69.8838C73.5119 68.6048 76.5649 62.171 80.4359 57.6218C83.8408 53.7634 85.2123 49.9223 84.3369 47.1519C82.8958 42.8591 77.7542 43.2982 75.0277 47.9758C74.0864 49.6222 73.066 51.0007 72.7129 50.9884C71.3005 50.9391 71.2615 49.5236 72.5991 46.6536C75.6706 39.6901 82.8129 37.6415 87.4195 42.3984Z" fill="#C2A970"/>
<path d="M72.5 77.2307C71.495 78.1678 71.615 82.3261 72.7225 83.5138C73.3188 84.1533 74.5393 84.6378 75.5986 84.6748C76.6579 84.7118 77.9092 84.3136 78.5488 83.7172C79.1883 83.1209 79.6728 81.9004 79.7098 80.8411C79.7468 79.7817 79.3486 78.5305 78.7522 77.8909C77.6447 76.7033 73.5049 76.2936 72.5 77.2307ZM77.0769 80.3072C77.043 81.2783 76.3973 82.0512 75.6911 82.0265C74.9849 82.0018 74.3947 81.1858 74.4286 80.2147C74.4625 79.2437 75.1082 78.4708 75.8144 78.4954C76.5206 78.5201 77.1108 79.3362 77.0769 80.3072Z" fill="#C2A970"/>
<path d="M45.0392 142.006C44.2801 141.403 44.0221 133.484 44.4833 124.339C45.1748 110.291 44.9202 107.665 43.1297 106.888C38.4978 104.906 34.1956 101.27 31.683 97.0888C27.7097 90.4761 23.5377 77.365 23.4755 71.314C23.374 64.7572 27.3181 55.9019 33.3649 49.2244C42.1726 39.4322 83.2318 17.6731 98.6201 14.6476C106.732 12.9498 112.823 14.0549 119.266 18.3897C124.483 22.0053 125.768 23.4832 132.078 33.9858C138.798 45.1691 139.11 45.9083 139.328 52.6596C140.001 70.5204 129.053 80.9366 95.8685 93.9935L79.1205 100.483L63.3933 121.448C54.6645 132.913 47.316 142.491 47.0242 142.666C46.6352 142.9 45.7984 142.608 45.0392 142.006ZM56.7806 125.421C61.3879 119.212 67.9004 110.666 71.322 106.228L77.4652 98.1689L92.1903 92.4977C110.125 85.5598 126.151 76.3272 130.914 70.1565C139.76 58.8855 137.902 43.4575 125.966 29.3201C114.244 15.3187 108.387 13.941 89.0123 20.6853C79.5001 24.0184 74.0151 26.7847 57.5221 36.5623C39.8621 47.0412 37.0615 48.9886 33.5427 53.4853C23.9387 65.4767 24.2581 78.1233 34.7173 95.5304C38.2816 101.462 39.1576 102.26 43.4778 103.502L48.2262 105.017L47.4574 120.038C46.707 133.327 46.8264 137.491 47.9933 136.79C48.1878 136.673 52.1148 131.534 56.7806 125.421Z" fill="#C2A970"/>
<path d="M53.2572 121.979C52.6729 121.007 65.2869 99.9272 67.0374 98.8755C70.052 97.0641 68.5758 100.995 62.4142 110.786C55.6696 121.589 54.1337 123.438 53.2572 121.979Z" fill="#C2A970"/>
<path d="M85.2836 92.0149C75.1491 95.8542 72.445 96.4202 72.8719 94.7077C73.2017 93.0537 97.0888 84.1274 98.3346 85.0995C99.6973 86.266 98.4719 86.87 85.2836 92.0149Z" fill="#C2A970"/>
<path d="M112.112 27.1884C106.565 23.9037 101.817 23.7121 94.2891 26.3825C86.6638 29.1112 82.9856 27.6154 90.2411 24.7118C99.5195 20.9897 107.263 21.1015 113.511 24.8916C119.604 28.6429 118.301 30.8812 112.112 27.1884Z" fill="#C2A970"/>
<path d="M74.134 32.2715C73.3945 31.9218 72.9466 31.3967 72.927 31.1438C73.1987 30.054 79.132 28.4743 79.5994 29.2523C80.3591 30.5165 75.6716 33.0683 74.134 32.2715Z" fill="#C2A970"/>
<script xmlns=""/></svg>